<svg xmlns="http://www.w3.org/2000/svg" width="42" height="30" viewBox="0 0 42 30">
    <g fill="none" fill-rule="evenodd">
        <path fill="#009949" d="M0 28L40 28 40 0 0 0z" transform="translate(1 1)"/>
        <path stroke="#1A1919" stroke-width=".25" d="M0 28L40 28 40 0 0 0z" transform="translate(1 1)"/>
        <path fill="#FFDA1A" d="M20 3.429L36.571 14 20 24.571 3.429 14 20 3.429" transform="translate(1 1)"/>
        <path fill="#054279" d="M20 20.571c3.787 0 6.857-3.07 6.857-6.857 0-3.787-3.07-6.857-6.857-6.857-3.787 0-6.857 3.07-6.857 6.857 0 3.787 3.07 6.857 6.857 6.857z" transform="translate(1 1)"/>
        <path stroke="#054279" stroke-width=".1" d="M20 20.571c3.787 0 6.857-3.07 6.857-6.857 0-3.787-3.07-6.857-6.857-6.857-3.787 0-6.857 3.07-6.857 6.857 0 3.787 3.07 6.857 6.857 6.857z" transform="translate(1 1)"/>
        <path fill="#FFFFFE" d="M14 16L13.938 16.218 13.714 16.218 13.89 16.351 13.823 16.571 13.996 16.44 14.176 16.571 14.107 16.357 14.286 16.218 14.07 16.218 14 16M16.286 16L16.224 16.218 16 16.218 16.176 16.351 16.109 16.571 16.281 16.44 16.462 16.571 16.392 16.357 16.571 16.218 16.356 16.218 16.286 16M24.857 17.143L24.795 17.361 24.571 17.361 24.748 17.494 24.681 17.714 24.853 17.583 25.034 17.714 24.964 17.5 25.143 17.361 24.927 17.361 24.857 17.143M24.857 16.571L24.795 16.79 24.571 16.79 24.748 16.922 24.681 17.143 24.853 17.012 25.034 17.143 24.964 16.928 25.143 16.79 24.927 16.79 24.857 16.571M20.286 14.857L20.224 15.076 20 15.076 20.176 15.208 20.109 15.429 20.281 15.297 20.462 15.429 20.392 15.214 20.571 15.076 20.355 15.076 20.286 14.857M20.857 15.429L20.795 15.647 20.571 15.647 20.748 15.779 20.681 16 20.853 15.869 21.034 16 20.964 15.785 21.143 15.647 20.927 15.647 20.857 15.429M23.714 18.286L23.652 18.504 23.429 18.504 23.605 18.637 23.538 18.857 23.71 18.726 23.891 18.857 23.821 18.642 24 18.504 23.784 18.504 23.714 18.286M17.429 13.714L17.367 13.933 17.143 13.933 17.319 14.065 17.252 14.286 17.424 14.154 17.605 14.286 17.535 14.071 17.714 13.933 17.498 13.933 17.429 13.714M16.857 17.714L16.795 17.933 16.571 17.933 16.748 18.065 16.681 18.286 16.853 18.154 17.034 18.286 16.964 18.071 17.143 17.933 16.927 17.933 16.857 17.714M20.286 16.571L20.224 16.79 20 16.79 20.176 16.922 20.109 17.143 20.281 17.011 20.462 17.143 20.392 16.928 20.571 16.79 20.355 16.79 20.286 16.571M24.857 16L24.795 16.218 24.571 16.218 24.748 16.351 24.681 16.571 24.853 16.44 25.034 16.571 24.964 16.357 25.143 16.218 24.927 16.218 24.857 16M22 11.429L21.938 11.647 21.714 11.647 21.891 11.78 21.823 12 21.996 11.869 22.177 12 22.107 11.785 22.286 11.647 22.07 11.647 22 11.429M14.571 12.571L14.509 12.79 14.286 12.79 14.462 12.922 14.395 13.143 14.567 13.011 14.748 13.143 14.678 12.928 14.857 12.79 14.641 12.79 14.571 12.571M15.143 15.429L15.081 15.647 14.857 15.647 15.033 15.78 14.966 16 15.138 15.869 15.32 16 15.249 15.785 15.429 15.647 15.213 15.647 15.143 15.429M22 18.286L21.938 18.504 21.714 18.504 21.89 18.637 21.823 18.857 21.996 18.726 22.176 18.857 22.107 18.643 22.286 18.504 22.07 18.504 22 18.286M20 19.304L19.971 19.399 19.869 19.399 19.95 19.457 19.919 19.553 19.998 19.496 20.081 19.553 20.049 19.459 20.131 19.399 20.032 19.399 20 19.304M15.714 14.857L15.652 15.075 15.429 15.075 15.605 15.208 15.538 15.429 15.71 15.297 15.891 15.429 15.821 15.214 16 15.075 15.784 15.075 15.714 14.857M19.714 16L19.652 16.218 19.429 16.218 19.605 16.351 19.538 16.571 19.71 16.439 19.891 16.571 19.821 16.357 20 16.218 19.784 16.218 19.714 16M16.286 16.571L16.223 16.79 16 16.79 16.176 16.923 16.11 17.143 16.282 17.012 16.462 17.143 16.393 16.928 16.571 16.79 16.355 16.79 16.286 16.571M19.143 15.429L19.081 15.647 18.857 15.647 19.034 15.78 18.967 16 19.139 15.869 19.32 16 19.25 15.786 19.429 15.647 19.212 15.647 19.143 15.429M21.428 17.714L21.366 17.933 21.143 17.933 21.319 18.066 21.252 18.286 21.425 18.154 21.605 18.286 21.535 18.071 21.714 17.933 21.498 17.933 21.428 17.714M22.571 17.714L22.509 17.933 22.286 17.933 22.462 18.066 22.395 18.286 22.568 18.154 22.748 18.286 22.678 18.071 22.857 17.933 22.641 17.933 22.571 17.714M23.714 17.714L23.652 17.933 23.429 17.933 23.605 18.066 23.538 18.286 23.71 18.154 23.891 18.286 23.821 18.071 24 17.933 23.784 17.933 23.714 17.714M24.286 17.714L24.223 17.933 24 17.933 24.176 18.066 24.11 18.286 24.282 18.154 24.462 18.286 24.392 18.071 24.571 17.933 24.355 17.933 24.286 17.714M26 16L25.938 16.218 25.714 16.218 25.891 16.351 25.824 16.571 25.996 16.44 26.177 16.571 26.107 16.357 26.286 16.218 26.07 16.218 26 16M23.714 18.857L23.652 19.075 23.429 19.075 23.605 19.209 23.538 19.429 23.71 19.297 23.891 19.429 23.821 19.214 24 19.075 23.784 19.075 23.714 18.857M21.428 13.143L21.366 13.361 21.143 13.361 21.319 13.494 21.252 13.714 21.425 13.583 21.605 13.714 21.535 13.5 21.714 13.361 21.498 13.361 21.428 13.143" transform="translate(1 1)"/>
        <path fill="#FFFFFE" d="M26.857 14.435c-.042.34-.113.672-.209.994l-.001-.001c-4.009-3.295-8.458-4.051-12.932-3.582.097-.314.218-.618.363-.91h.001c4.539-.347 8.704.383 12.778 3.5" transform="translate(1 1)"/>
        <path fill="#009949" d="M14.286 11.936c-.01-.27.191-.496.48-.507.289-.01.508.2.52.47.01.288-.171.518-.48.53-.308.01-.508-.204-.52-.493zm.684-.025c-.007-.172-.067-.285-.196-.28-.13.004-.179.122-.172.293.007.183.061.308.196.303.135-.005.179-.134.172-.316z" transform="translate(1 1)"/>
        <path fill="#009949" d="M14.857 11.441l.502-.012c.265-.007.411.091.416.253.005.15-.077.242-.18.29l.262.415-.362.042-.19-.386-.09.002.013.373-.34.008-.03-.985zm.353.418l.097-.002c.09-.002.132-.07.13-.124-.003-.097-.072-.12-.145-.118l-.09.002.008.242z" transform="translate(1 1)"/>
        <path fill="#009949" d="M15.84 10.857c.422-.003.587.226.589.467.002.365-.278.529-.595.53l-.399.003-.006-.997.41-.003zm-.087.812h.081c.183-.002.268-.14.267-.342-.001-.18-.121-.284-.26-.283h-.092l.004.625zM17.108 11.544L16.849 11.539 16.844 11.649 17.097 11.654 17.091 11.759 16.839 11.754 16.832 11.889 17.143 11.895 17.138 12 16.571 11.988 16.599 11.429 17.113 11.44 17.108 11.544M17.672 12l-.132-.015.03-.358h-.001c-.045.13-.09.238-.133.346l-.083-.01c-.026-.115-.053-.232-.076-.37h-.001l-.03.358-.103-.011.042-.511.178.02c.022.101.044.202.063.325h.002c.038-.117.075-.21.112-.305l.174.02-.042.511M19.405 11.579L19.181 11.551 19.156 11.652 19.374 11.679 19.35 11.775 19.132 11.748 19.101 11.871 19.369 11.904 19.345 12 18.857 11.94 18.985 11.429 19.429 11.483 19.405 11.579M20.3 12.3c.023.002.084-.004.1-.062.015-.048-.022-.073-.062-.084l-.045-.012-.125.43-.168-.044.153-.528.232.06c.139.036.21.108.18.21-.026.09-.139.165-.285.127l-.06-.016.026-.092.054.011M21.453 12l.418.116c.221.062.309.176.258.305-.048.12-.147.172-.248.184l.074.395-.312-.058-.026-.353-.074-.02-.117.297-.283-.078.31-.788zm.149.42l.08.022c.075.02.134-.023.15-.065.031-.078-.019-.113-.079-.13l-.075-.021-.076.194z" transform="translate(1 1)"/>
        <path fill="#009949" d="M21.758 12.314c.101-.251.377-.38.642-.28.266.101.379.377.278.629-.108.268-.367.408-.651.3-.284-.107-.377-.38-.269-.649zm.629.239c.064-.16.057-.286-.062-.331-.119-.045-.212.043-.276.203-.068.169-.07.304.053.351.125.047.217-.054.285-.223z" transform="translate(1 1)"/>
        <path fill="#009949" d="M22.777 12.943l-.1.2c-.07-.01-.126-.024-.174-.043-.172-.072-.267-.225-.19-.38.07-.144.248-.186.424-.114.034.014.09.049.12.079l-.08.068c-.022-.017-.067-.039-.081-.045-.074-.03-.172-.018-.223.085-.05.1.01.18.063.201.005.002.014.005.025.006l.06-.122.156.065M23.853 13.143l.364.162c.193.085.253.203.183.318-.064.107-.165.142-.26.14v.38l-.279-.094.039-.334-.065-.029-.16.265-.246-.11.424-.698zm.063.412l.07.03c.065.03.127-.004.15-.042.042-.068.002-.108-.05-.131l-.066-.029-.104.172z" transform="translate(1 1)"/>
        <path fill="#009949" d="M24.519 13.365L24.372 13.292 24.317 13.373 24.46 13.445 24.408 13.522 24.265 13.45 24.197 13.549 24.373 13.637 24.321 13.714 24 13.554 24.28 13.143 24.571 13.288 24.519 13.365M25.06 13.925c-.012-.025-.032-.048-.058-.065-.028-.019-.05-.014-.06.002-.017.028.009.077.028.152.024.1.016.147-.015.199-.026.044-.122.123-.263.028-.055-.037-.102-.087-.12-.144l.092-.053c.01.03.026.066.06.088.028.02.068.025.09-.012.024-.04-.004-.099-.02-.158-.022-.078-.035-.123.001-.184.048-.08.157-.082.245-.023.06.04.093.095.103.116l-.083.054M25.63 14.504c-.01-.026-.03-.05-.054-.068-.027-.02-.05-.016-.06 0-.017.027.007.078.022.154.02.102.011.149-.022.2-.027.043-.125.118-.26.017-.053-.04-.097-.092-.113-.15l.093-.05c.009.03.023.067.055.092.028.02.067.027.09-.009.025-.038 0-.1-.015-.16-.018-.079-.03-.125.01-.185.05-.078.156-.076.241-.012.058.042.088.098.097.12l-.084.05M25.837 14.481c.168-.214.465-.263.687-.093.222.17.25.467.082.682-.178.228-.463.292-.7.11-.238-.182-.247-.47-.069-.699zm.526.403c.106-.136.136-.26.037-.336-.1-.076-.214-.016-.32.12-.112.143-.153.273-.05.353.104.079.22.007.333-.137z" transform="translate(1 1)"/>
    </g>
</svg>
