<svg xmlns="http://www.w3.org/2000/svg" width="17" height="16" viewBox="0 0 17 16">
    <g fill="none" fill-rule="evenodd">
        <g fill="#5CACE0" fill-rule="nonzero">
            <g>
                <g>
                    <path d="M80.8 18V7.205h-3.588V18H80.8zM79.006 5.73c1.251 0 2.03-.829 2.03-1.865C81.013 2.805 80.257 2 79.03 2 77.803 2 77 2.806 77 3.865c0 1.036.779 1.865 1.983 1.865h.023zM82.786 18h3.588v-6.029c0-.322.023-.644.118-.875.26-.645.85-1.312 1.84-1.312 1.3 0 1.819.99 1.819 2.44V18h3.588v-6.19c0-3.316-1.77-4.859-4.131-4.859-1.936 0-2.786 1.082-3.258 1.82h.024V7.204h-3.588c.047 1.013 0 10.795 0 10.795z" transform="translate(-1329 -920) translate(-52 805) translate(1304 113)"/>
                </g>
            </g>
        </g>
    </g>
</svg>
