<svg xmlns="http://www.w3.org/2000/svg" width="106" height="36" viewBox="0 0 106 36">
    <g fill="none" fill-rule="evenodd">
        <g fill-rule="nonzero">
            <g>
                <g>
                    <path fill="#FFF" d="M14.862 0L0 35.84 90.43 35.84 105.262 0z" transform="translate(-96 -18) translate(96 18)"/>
                    <path fill="#003A78" d="M89.054 13.44c2.004-6.093-4.814-7.138-10.526-7.138-8.044 0-13.786 1.822-16.148 7.646-.24.597-.419 1.194-.479 1.822h-7.117l3.529-8.602h-3.469l-3.529 8.602H36.393l14.145-8.572H39.174l-11.423 7.496 3.08-7.526h-8.403l-8.822 21.504h8.403l2.273-5.555 4.276-2.569 2.781 8.124h10.377l-4.127-9.856h12.5l-4.037 9.856h3.44l4.036-9.856h9.898c.928.567 2.243.926 3.948 1.135l7.117.896c1.974.239 2.661.567 2.213 1.702-.628 1.553-2.751 1.912-4.605 1.912-1.824 0-2.871-.24-3.47-.687-.597-.388-.657-1.045-.448-1.822h-9.748c-2.423 6.51 5.203 7.556 11.154 7.556 8.911 0 14.713-2.39 16.776-7.437 1.704-4.21-.449-5.973-5.98-6.63l-6.939-.806c-2.033-.24-2.362-.837-2.093-1.494.598-1.463 2.243-2.03 4.665-2.03 1.077 0 2.123.119 2.811.477.718.329 1.047.896.778 1.822h9.45v.03z" transform="translate(-96 -18) translate(96 18)"/>
                </g>
            </g>
        </g>
    </g>
</svg>
