<svg xmlns="http://www.w3.org/2000/svg" width="120" height="41" viewBox="0 0 120 41">
    <g fill="none" fill-rule="evenodd">
        <g fill-rule="nonzero">
            <g>
                <g>
                    <path fill="#003A78" d="M16.919 0L0 40.8 102.945 40.8 119.83 0z" transform="translate(-36 -845) translate(-52 805) translate(88 40)"/>
                    <path fill="#FFF" d="M101.379 15.3c2.28-6.936-5.481-8.126-11.983-8.126-9.158 0-15.694 2.074-18.383 8.704-.273.68-.477 1.36-.545 2.074h-8.102l4.017-9.792h-3.949l-4.017 9.792H41.43l16.102-9.758H44.596L31.59 16.728l3.507-8.568h-9.566L15.489 32.64h9.566l2.588-6.324 4.868-2.924 3.166 9.248h11.812l-4.698-11.22h14.23l-4.595 11.22h3.914l4.596-11.22h11.268c1.056.646 2.553 1.054 4.494 1.292l8.102 1.02c2.247.272 3.03.646 2.52 1.938-.716 1.768-3.133 2.176-5.243 2.176-2.077 0-3.268-.272-3.95-.782-.68-.442-.748-1.19-.51-2.074H66.519c-2.757 7.412 5.924 8.602 12.698 8.602 10.145 0 16.749-2.72 19.098-8.466 1.94-4.794-.51-6.8-6.809-7.548l-7.897-.918c-2.315-.272-2.69-.952-2.383-1.7.68-1.666 2.553-2.312 5.31-2.312 1.226 0 2.417.136 3.2.544.817.374 1.192 1.02.885 2.074h10.758v.034z" transform="translate(-36 -845) translate(-52 805) translate(88 40)"/>
                </g>
            </g>
        </g>
    </g>
</svg>
