<?xml version="1.0" encoding="UTF-8"?>
<svg width="66px" height="25px" viewBox="0 0 66 25" version="1.1" xmlns="http://www.w3.org/2000/svg" xmlns:xlink="http://www.w3.org/1999/xlink">
    <!-- Generator: Sketch 59 (86127) - https://sketch.com -->
    <title>ilogica</title>
    <desc>Created with Sketch.</desc>
    <g id="Page-1" stroke="none" stroke-width="1" fill="none" fill-rule="evenodd">
        <g id="ilogica" fill="#005EA1" fill-rule="nonzero">
            <path d="M5.4475,6.58783784 L0.8,6.58783784 L0.8,8.82309123 L2.49,8.82309123 L2.49,15.5308277 L1.2849,15.5308277 L1.2849,17.7871622 L6.65,17.7871622 L6.65,15.5308277 L5.4475,15.5308277 L5.4475,6.58783784 Z M11.9462,1.31756757 L7.3,1.31756757 L7.3,3.53173987 L8.99,3.53173987 L8.99,15.5749662 L7.7862,15.5749662 L7.7862,17.7871622 L13.15,17.7871622 L13.15,15.5749662 L11.9462,15.5749662 L11.9462,1.31756757 Z M19.325,6.58783784 C15.48545,6.58783784 13.15,9.38766896 13.15,12.6381081 C13.15325,16.4972635 15.5784,18.4459459 19.325,18.4459459 C23.0716,18.4459459 25.5000153,16.0183277 25.5000153,12.635473 C25.5039,8.69067566 23.2796,6.58783784 19.325,6.58783784 Z M19.325,15.9761656 C17.39385,15.9761656 16.56315,14.7402872 16.56315,12.7020101 C16.56315,10.6419932 17.3919,9.05893584 19.325,9.05893584 C21.2581,9.05893584 22.0868907,10.2730743 22.0868907,12.7020101 C22.09075,14.7402872 21.2594,15.9761656 19.325,15.9761656 L19.325,15.9761656 Z M42.4195,9.50559123 L42.4195,7.25452703 L34.40825,7.25452703 C34.2607,7.25452703 34.1138,7.22554054 33.9773,7.16888513 C33.2078571,6.82106412 32.3792367,6.62755251 31.5372,6.59903716 C31.39745,6.59244932 31.25315,6.58783784 31.1017,6.58783784 C27.88875,6.58783784 25.8159,8.30396962 25.8159,11.0016892 C25.8159,12.696081 26.5348,14.1440878 28.7604,14.8575507 L28.7604,14.9016892 C27.6138,15.1072297 26.4893,15.6816892 26.4893,16.8411487 C26.4893,17.9110135 27.0743,18.3563513 28.0857,18.5803378 L28.0857,18.6238176 C25.99465,19.1146115 25.5,20.2510135 25.5,21.255 C25.5,22.6812669 26.66935,24.375 31.4345,24.375 C36.26855,24.375 37.6394,21.702973 37.6394,20.0066047 C37.6394,17.9999493 36.5149,17.1540709 34.49145,16.9300844 L30.6038,16.5084628 C30.0188,16.4412669 29.7744,16.2844763 29.7744,15.8845946 C29.7744,15.5275338 30.15725,15.2607263 30.53815,15.2607263 L31.66265,15.2607263 C34.2711,15.2607263 36.60915,13.9899325 36.60915,11.2526858 C36.60915,10.6459459 36.46095,10.0484291 36.1769,9.51086151 L39.2774,9.51086151 L39.2774,16.2601013 L37.993,16.2601013 L37.993,18.5335642 L43.7,18.5335642 L43.7,16.2607601 L42.4195,16.2607601 L42.4195,9.50493245 L42.4195,9.50559123 Z M33.12125,19.5612669 C34.1775,19.6732601 34.67605,19.7845946 34.67605,20.4973987 C34.67605,21.5672635 33.0348,22.1028547 31.64055,22.1028547 C29.72955,22.1028547 28.47115,21.6568581 28.47115,20.5613007 C28.47115,19.8919763 29.1907,19.4018412 29.77505,19.2015709 L33.12125,19.5612669 L33.12125,19.5612669 Z M31.2772,12.9839696 C29.7042,12.9839696 28.7812,12.2263682 28.7812,11.0010304 C28.7812,9.45947633 30.0175,8.86130066 31.389,8.86130066 C32.8047,8.86130066 33.9064723,9.66369934 33.9064723,10.8896959 C33.90905,11.9134459 33.2337,12.9859459 31.27785,12.9859459 L31.2772,12.9839696 L31.2772,12.9839696 Z" id="Shape"></path>
            <path d="M43.05,12.5280912 C43.05,15.8015878 45.1326,18.4459459 49.07875,18.4459459 C50.629,18.4459459 51.66965,18.2371115 52.8,17.8253716 L52.8,15.3259459 C51.8705,15.7502027 50.8565,15.9728716 49.8308,15.9781419 C47.17425,15.9781419 46.1518,14.1335473 46.1518,12.2052872 C46.1518,10.6446284 47.0163,8.80596283 49.07745,8.80596283 C49.43625,8.80991556 49.79245,8.85339528 50.1415,8.93771962 L50.1415,10.5069426 L52.79805,10.5069426 L52.79805,7.22158784 C51.812,6.89087838 50.889,6.58783784 49.1418,6.58783784 C45.4433,6.58783784 43.05,8.86327699 43.05,12.5280912 Z M63.8617,15.9722128 L63.8617,10.944375 C63.8617,7.64650338 61.86035,6.58783784 58.71175,6.58783784 L58.64025,6.58783784 C56.88785,6.59574325 54.9931,6.89548987 54.00575,7.22158784 L54.00575,10.4970608 L56.7104,10.4970608 L56.7104,9.12283783 C57.2499,8.92783783 58.21645,8.79805745 58.6669,8.79805745 C60.1502,8.79805745 60.89315,9.25261821 60.89315,10.965456 L60.89315,11.5063176 C58.59995,11.5063176 57.0016,11.6163344 55.81145,12.0267568 C54.57385,12.4608953 53.45,13.5261487 53.45,15.1474156 C53.45,16.9261318 54.7318,18.4459459 57.39095,18.4459459 C59.10175,18.4459459 60.14045,17.8464527 60.89835,16.5776351 L60.89835,18.1863851 L65.15,18.1863851 L65.15,15.9722128 L63.8617,15.9722128 Z M58.32955,16.2330912 C57.09455,16.2317737 56.6025,15.5426858 56.6025,14.8667737 C56.6025,13.8917737 57.4124,13.3673818 59.976,13.3673818 L60.8548,13.3673818 C60.8548,15.4511149 59.59055,16.2317737 58.3315,16.2317737 L58.32955,16.2330912 L58.32955,16.2330912 Z M16.4,1.31756757 L22.25,1.31756757 L22.25,3.9527027 L16.4,3.9527027 L16.4,1.31756757 Z" id="Shape"></path>
            <ellipse id="Oval" cx="3.4" cy="1.97635135" rx="1.95" ry="1.97635135"></ellipse>
            <ellipse id="Oval" cx="39.8" cy="2.63513513" rx="1.95" ry="1.97635135"></ellipse>
        </g>
    </g>
</svg>